<svg width="1333" height="1260" viewBox="0 0 1333 1260" fill="none" xmlns="http://www.w3.org/2000/svg">
<path fill-rule="evenodd" clip-rule="evenodd" d="M959.5 443C1081.83 443 1181 343.831 1181 221.5C1181 99.1689 1081.83 0 959.5 0C837.169 0 738 99.1689 738 221.5C738 343.831 837.169 443 959.5 443ZM1307.9 972.598C1291.99 933.575 1274.39 890.406 1274.39 845C1274.39 670.478 1133.18 529 959 529C784.817 529 643.613 670.478 643.613 845C643.613 890.406 626.01 933.575 610.097 972.598C564.848 1083.56 533.271 1161 959 1161C1384.73 1161 1353.15 1083.56 1307.9 972.598ZM596 320.5C596 442.831 496.831 542 374.5 542C252.169 542 153 442.831 153 320.5C153 198.169 252.169 99 374.5 99C496.831 99 596 198.169 596 320.5ZM726.595 1206.1C435.58 1191.08 464.96 1119.03 505.097 1020.6C521.01 981.575 538.613 938.406 538.613 893C538.613 827.496 558.505 766.647 592.567 716.187C535.879 661.574 458.853 628 374 628C199.817 628 58.6134 769.478 58.6134 944C58.6134 989.406 41.01 1032.58 25.0973 1071.6C-20.1516 1182.56 -51.7285 1260 374 1260C589.65 1260 687.962 1240.13 726.595 1206.1Z" fill="black"/>
</svg>
